REM DIRINDEX 1\2,1\3\7,1\3\8,1\4\9,1\4\10,1\4\11,1\5\12,1\5\13,1\5\14,1\6\15,1\6\16,1\6\17
REM DIRNAME "folder01","folder02","folder03","folder04","folder05","folder06","folder07","folder08","folder09","folder10","folder11","folder12","folder13","folder14","folder15","folder16","folder17"
TITLE ""
FILE "2Q_j_1407-1420.mp3" MP3
  TRACK 01 AUDIO
    TITLE "9:cjc174_0438"
    INDEX 01 00:00:00
  TRACK 02 AUDIO
    TITLE "0:"
    INDEX 01 00:01:37
  TRACK 03 AUDIO
    TITLE "10:cjc174_0439"
    INDEX 01 00:02:07
  TRACK 04 AUDIO
    TITLE "0:"
    INDEX 01 00:03:65
  TRACK 05 AUDIO
    TITLE "11:cjc174_0440"
    INDEX 01 00:04:36
  TRACK 06 AUDIO
    TITLE "0:"
    INDEX 01 00:08:51
  TRACK 07 AUDIO
    TITLE "9:cjc174_0441"
    INDEX 01 00:09:21
  TRACK 08 AUDIO
    TITLE "0:"
    INDEX 01 00:10:46
  TRACK 09 AUDIO
    TITLE "10:cjc174_0442"
    INDEX 01 00:11:16
  TRACK 10 AUDIO
    TITLE "0:"
    INDEX 01 00:13:54
  TRACK 11 AUDIO
    TITLE "11:cjc174_0443"
    INDEX 01 00:14:24
  TRACK 12 AUDIO
    TITLE "0:"
    INDEX 01 00:17:17
  TRACK 13 AUDIO
    TITLE "9:cjc174_0444"
    INDEX 01 00:17:71
  TRACK 14 AUDIO
    TITLE "0:"
    INDEX 01 00:19:15
  TRACK 15 AUDIO
    TITLE "10:cjc174_0445"
    INDEX 01 00:19:61
  TRACK 16 AUDIO
    TITLE "0:"
    INDEX 01 00:23:13
  TRACK 17 AUDIO
    TITLE "11:cjc174_0446"
    INDEX 01 00:23:56
  TRACK 18 AUDIO
    TITLE "0:"
    INDEX 01 00:26:25
  TRACK 19 AUDIO
    TITLE "9:cjc174_0447"
    INDEX 01 00:26:72
  TRACK 20 AUDIO
    TITLE "0:"
    INDEX 01 00:28:34
  TRACK 21 AUDIO
    TITLE "10:cjc174_0448"
    INDEX 01 00:29:08
  TRACK 22 AUDIO
    TITLE "0:"
    INDEX 01 00:31:09
  TRACK 23 AUDIO
    TITLE "11:cjc174_0449"
    INDEX 01 00:31:54
  TRACK 24 AUDIO
    TITLE "0:"
    INDEX 01 00:35:56
  TRACK 25 AUDIO
    TITLE "9:cjc174_0450"
    INDEX 01 00:36:28
  TRACK 26 AUDIO
    TITLE "0:"
    INDEX 01 00:38:21
  TRACK 27 AUDIO
    TITLE "10:cjc174_0451"
    INDEX 01 00:38:68
  TRACK 28 AUDIO
    TITLE "0:"
    INDEX 01 00:42:19
  TRACK 29 AUDIO
    TITLE "11:cjc174_0452"
    INDEX 01 00:42:64
  TRACK 30 AUDIO
    TITLE "0:"
    INDEX 01 00:46:24
  TRACK 31 AUDIO
    TITLE "9:cjc174_0453"
    INDEX 01 00:47:04
  TRACK 32 AUDIO
    TITLE "0:"
    INDEX 01 00:48:49
  TRACK 33 AUDIO
    TITLE "10:cjc174_0454"
    INDEX 01 00:49:17
  TRACK 34 AUDIO
    TITLE "0:"
    INDEX 01 00:51:02
  TRACK 35 AUDIO
    TITLE "11:cjc174_0455"
    INDEX 01 00:51:47
  TRACK 36 AUDIO
    TITLE "0:"
    INDEX 01 00:55:43
  TRACK 37 AUDIO
    TITLE "9:cjc174_0456"
    INDEX 01 00:56:25
  TRACK 38 AUDIO
    TITLE "0:"
    INDEX 01 00:57:65
  TRACK 39 AUDIO
    TITLE "10:cjc174_0457"
    INDEX 01 00:58:35
  TRACK 40 AUDIO
    TITLE "0:"
    INDEX 01 01:00:30
  TRACK 41 AUDIO
    TITLE "11:cjc174_0458"
    INDEX 01 01:01:00
  TRACK 42 AUDIO
    TITLE "0:"
    INDEX 01 01:04:61
  TRACK 43 AUDIO
    TITLE "9:cjc174_0459"
    INDEX 01 01:05:35
  TRACK 44 AUDIO
    TITLE "0:"
    INDEX 01 01:06:70
  TRACK 45 AUDIO
    TITLE "10:cjc174_0460"
    INDEX 01 01:07:40
  TRACK 46 AUDIO
    TITLE "0:"
    INDEX 01 01:09:49
  TRACK 47 AUDIO
    TITLE "11:cjc174_0461"
    INDEX 01 01:10:19
  TRACK 48 AUDIO
    TITLE "0:"
    INDEX 01 01:15:41
  TRACK 49 AUDIO
    TITLE "9:cjc174_0462"
    INDEX 01 01:16:13
  TRACK 50 AUDIO
    TITLE "0:"
    INDEX 01 01:17:66
  TRACK 51 AUDIO
    TITLE "10:cjc174_0463"
    INDEX 01 01:18:36
  TRACK 52 AUDIO
    TITLE "0:"
    INDEX 01 01:20:25
  TRACK 53 AUDIO
    TITLE "11:cjc174_0464"
    INDEX 01 01:20:70
  TRACK 54 AUDIO
    TITLE "0:"
    INDEX 01 01:26:30
  TRACK 55 AUDIO
    TITLE "9:cjc174_0465"
    INDEX 01 01:27:09
  TRACK 56 AUDIO
    TITLE "0:"
    INDEX 01 01:28:24
  TRACK 57 AUDIO
    TITLE "10:cjc174_0466"
    INDEX 01 01:28:73
  TRACK 58 AUDIO
    TITLE "0:"
    INDEX 01 01:30:19
  TRACK 59 AUDIO
    TITLE "11:cjc174_0467"
    INDEX 01 01:30:66
  TRACK 60 AUDIO
    TITLE "0:"
    INDEX 01 01:34:31
  TRACK 61 AUDIO
    TITLE "9:cjc174_0468"
    INDEX 01 01:35:07
  TRACK 62 AUDIO
    TITLE "0:"
    INDEX 01 01:36:22
  TRACK 63 AUDIO
    TITLE "10:cjc174_0469"
    INDEX 01 01:36:71
  TRACK 64 AUDIO
    TITLE "0:"
    INDEX 01 01:38:43
  TRACK 65 AUDIO
    TITLE "11:cjc174_0470"
    INDEX 01 01:39:13
  TRACK 66 AUDIO
    TITLE "0:"
    INDEX 01 01:42:38
  TRACK 67 AUDIO
    TITLE "9:cjc174_0471"
    INDEX 01 01:43:08
  TRACK 68 AUDIO
    TITLE "0:"
    INDEX 01 01:44:22
  TRACK 69 AUDIO
    TITLE "10:cjc174_0472"
    INDEX 01 01:44:74
  TRACK 70 AUDIO
    TITLE "0:"
    INDEX 01 01:46:20
  TRACK 71 AUDIO
    TITLE "11:cjc174_0473"
    INDEX 01 01:46:66
  TRACK 72 AUDIO
    TITLE "0:"
    INDEX 01 01:53:07
  TRACK 73 AUDIO
    TITLE "9:cjc174_0474"
    INDEX 01 01:53:54
  TRACK 74 AUDIO
    TITLE "0:"
    INDEX 01 01:55:06
  TRACK 75 AUDIO
    TITLE "10:cjc174_0475"
    INDEX 01 01:55:61
  TRACK 76 AUDIO
    TITLE "0:"
    INDEX 01 01:57:40
  TRACK 77 AUDIO
    TITLE "11:cjc174_0476"
    INDEX 01 01:58:10
  TRACK 78 AUDIO
    TITLE "0:"
    INDEX 01 02:00:42
  TRACK 79 AUDIO
    TITLE "9:cjc174_0477"
    INDEX 01 02:01:22
  TRACK 80 AUDIO
    TITLE "0:"
    INDEX 01 02:02:66
  TRACK 81 AUDIO
    TITLE "10:cjc174_0478"
    INDEX 01 02:03:39
  TRACK 82 AUDIO
    TITLE "0:"
    INDEX 01 02:07:01
  TRACK 83 AUDIO
    TITLE "11:cjc174_0479"
    INDEX 01 02:07:48
  TRACK 84 AUDIO
    TITLE "0:"
    INDEX 01 02:10:70
